<svg xmlns="http://www.w3.org/2000/svg" width="80" height="100" viewBox="0 0 80 100">
  <ellipse cx="40" cy="92" rx="26" ry="6" fill="#1a0e06" opacity="0.7"></ellipse>
  <path d="M18 52 L62 52 L59 86 Q59 94 51 94 L29 94 Q21 94 21 86 Z" fill="#8a6a3a" stroke="#3e2a14" stroke-width="1.2"></path>
  <ellipse cx="40" cy="52" rx="22" ry="5" fill="#3e2a14"></ellipse>
  <ellipse cx="40" cy="52" rx="14" ry="3" fill="#140a05"></ellipse>
  
  <path d="M46 50 Q52 26 66 4 Q58 20 54 28 Q48 40 46 50" fill="#e8d5a5" stroke="#3e2a14" stroke-width="1"></path>
  <path d="M49 42 L58 26 M47 44 L56 30 M46 46 L54 34" stroke="#3e2a14" stroke-width="0.5" opacity="0.5"></path>
  
  <circle cx="70" cy="66" r="2" fill="#140a05" opacity="0.7"></circle>
  <circle cx="73" cy="74" r="1.3" fill="#140a05" opacity="0.5"></circle>
</svg>